<svg width="184" height="55" viewBox="0 0 184 55" fill="none" xmlns="http://www.w3.org/2000/svg">
<path d="M177.185 0.5H6.81481C3.0511 0.5 0 3.52208 0 7.25V47.75C0 51.4779 3.0511 54.5 6.81481 54.5H177.185C180.949 54.5 184 51.4779 184 47.75V7.25C184 3.52208 180.949 0.5 177.185 0.5Z" fill="black"/>
<path d="M177.185 1.58C178.703 1.58 180.159 2.17737 181.233 3.2407C182.307 4.30404 182.91 5.74622 182.91 7.25V47.75C182.91 49.2538 182.307 50.696 181.233 51.7593C180.159 52.8226 178.703 53.42 177.185 53.42H6.81481C5.2966 53.42 3.84056 52.8226 2.76702 51.7593C1.69348 50.696 1.09037 49.2538 1.09037 47.75V7.25C1.09037 5.74622 1.69348 4.30404 2.76702 3.2407C3.84056 2.17737 5.2966 1.58 6.81481 1.58H177.185ZM177.185 0.5H6.81481C5.00741 0.5 3.27404 1.21116 1.99601 2.47703C0.717987 3.7429 0 5.45979 0 7.25V47.75C0 49.5402 0.717987 51.2571 1.99601 52.523C3.27404 53.7888 5.00741 54.5 6.81481 54.5H177.185C178.993 54.5 180.726 53.7888 182.004 52.523C183.282 51.2571 184 49.5402 184 47.75V7.25C184 5.45979 183.282 3.7429 182.004 2.47703C180.726 1.21116 178.993 0.5 177.185 0.5Z" fill="#A6A6A6"/>
<path d="M43.7682 26.572C43.7306 22.4263 47.1953 20.4094 47.3538 20.3155C45.3915 17.4818 42.3501 17.0946 41.2813 17.0638C38.7269 16.7975 36.2491 18.5777 34.9479 18.5777C33.6207 18.5777 31.6169 17.0895 29.4572 17.1332C26.6781 17.1757 24.0782 18.7694 22.6523 21.2442C19.7096 26.2903 21.9043 33.7058 24.7237 37.7846C26.134 39.7822 27.782 42.0126 29.939 41.9342C32.0493 41.848 32.8376 40.6016 35.3842 40.6016C37.9075 40.6016 38.6477 41.9342 40.8476 41.884C43.1124 41.848 44.5383 39.8774 45.8993 37.8618C47.5291 35.5722 48.1836 33.3173 48.2096 33.2015C48.1563 33.1835 43.8111 31.5409 43.7682 26.572Z" fill="white"/>
<path d="M39.6123 14.3817C40.7473 12.9758 41.5239 11.0631 41.3083 9.12207C39.6655 9.1941 37.6111 10.2476 36.428 11.6226C35.3813 12.8343 34.4463 14.8203 34.6878 16.688C36.5332 16.8244 38.4279 15.7657 39.6123 14.3817Z" fill="white"/>
<path d="M74.308 41.6494H71.3588L69.7433 36.6213H64.128L62.5891 41.6494H59.7178L65.2811 24.5315H68.7173L74.308 41.6494ZM69.2563 34.5118L67.7953 30.042C67.6408 29.5853 67.3512 28.51 66.9239 26.8172H66.872C66.7019 27.5453 66.4278 28.6206 66.0512 30.042L64.6162 34.5118H69.2563Z" fill="white"/>
<path d="M88.615 35.3267C88.615 37.4259 88.0423 39.0852 86.8969 40.3033C85.871 41.3877 84.597 41.9292 83.0763 41.9292C81.4348 41.9292 80.2556 41.3452 79.5375 40.1773H79.4855V46.6795H76.7168V33.3702C76.7168 32.0505 76.6818 30.6961 76.6143 29.3069H79.0492L79.2037 31.2633H79.2557C80.179 29.7892 81.5803 29.0535 83.4607 29.0535C84.9307 29.0535 86.158 29.6284 87.1397 30.7797C88.1241 31.9322 88.615 33.4474 88.615 35.3267ZM85.7943 35.427C85.7943 34.2256 85.5216 33.2352 84.9736 32.4557C84.3749 31.6428 83.5711 31.2363 82.5633 31.2363C81.8802 31.2363 81.2595 31.4627 80.705 31.909C80.1492 32.3592 79.7855 32.9471 79.6154 33.6751C79.5297 34.0147 79.4868 34.2925 79.4868 34.5112V36.5693C79.4868 37.4671 79.7648 38.2247 80.3206 38.8434C80.8764 39.4621 81.5984 39.7708 82.4867 39.7708C83.5295 39.7708 84.3412 39.3721 84.9217 38.5771C85.5034 37.7809 85.7943 36.7313 85.7943 35.427Z" fill="white"/>
<path d="M102.949 35.3267C102.949 37.4259 102.376 39.0852 101.229 40.3033C100.205 41.3877 98.9307 41.9292 97.4099 41.9292C95.7685 41.9292 94.5893 41.3452 93.8725 40.1773H93.8205V46.6795H91.0518V33.3702C91.0518 32.0505 91.0167 30.6961 90.9492 29.3069H93.3842L93.5387 31.2633H93.5906C94.5127 29.7892 95.9139 29.0535 97.7957 29.0535C99.2644 29.0535 100.492 29.6284 101.476 30.7797C102.456 31.9322 102.949 33.4474 102.949 35.3267ZM100.128 35.427C100.128 34.2256 99.854 33.2352 99.306 32.4557C98.7073 31.6428 97.906 31.2363 96.897 31.2363C96.2126 31.2363 95.5932 31.4627 95.0373 31.909C94.4815 32.3592 94.1192 32.9471 93.9491 33.6751C93.8647 34.0147 93.8205 34.2925 93.8205 34.5112V36.5693C93.8205 37.4671 94.0984 38.2247 94.6516 38.8434C95.2075 39.4608 95.9295 39.7708 96.8204 39.7708C97.8632 39.7708 98.6748 39.3721 99.2553 38.5771C99.8371 37.7809 100.128 36.7313 100.128 35.427Z" fill="white"/>
<path d="M118.974 36.8493C118.974 38.3054 118.463 39.4901 117.439 40.4046C116.313 41.4041 114.745 41.9032 112.731 41.9032C110.871 41.9032 109.38 41.5481 108.252 40.8368L108.893 38.5511C110.109 39.2791 111.443 39.6444 112.896 39.6444C113.939 39.6444 114.75 39.4103 115.333 38.9447C115.914 38.4791 116.204 37.8539 116.204 37.0744C116.204 36.3798 115.965 35.7946 115.485 35.3199C115.009 34.8453 114.213 34.4041 113.101 33.9963C110.075 32.8786 108.564 31.2411 108.564 29.0879C108.564 27.6807 109.093 26.5269 110.154 25.629C111.212 24.7299 112.622 24.281 114.385 24.281C115.958 24.281 117.265 24.5524 118.307 25.0939L117.615 27.3295C116.641 26.8047 115.54 26.5423 114.308 26.5423C113.334 26.5423 112.573 26.7803 112.027 27.2536C111.566 27.6768 111.335 28.1926 111.335 28.8036C111.335 29.4802 111.599 30.0397 112.128 30.4796C112.589 30.8861 113.427 31.326 114.643 31.8006C116.13 32.3936 117.222 33.0869 117.924 33.8819C118.624 34.6742 118.974 35.6659 118.974 36.8493Z" fill="white"/>
<path d="M128.127 31.3636H125.076V37.3564C125.076 38.8806 125.613 39.6421 126.691 39.6421C127.186 39.6421 127.596 39.5997 127.921 39.5148L127.997 41.5973C127.452 41.7992 126.734 41.9008 125.844 41.9008C124.751 41.9008 123.896 41.5703 123.28 40.9104C122.665 40.2492 122.356 39.1405 122.356 37.5828V31.361H120.538V29.3029H122.356V27.0429L125.076 26.23V29.3029H128.127V31.3636Z" fill="white"/>
<path d="M141.897 35.3778C141.897 37.275 141.349 38.8327 140.256 40.0509C139.109 41.305 137.587 41.9301 135.69 41.9301C133.861 41.9301 132.406 41.3294 131.32 40.128C130.234 38.9266 129.691 37.4101 129.691 35.5823C129.691 33.6696 130.25 32.1029 131.371 30.8848C132.489 29.6654 133.998 29.0557 135.895 29.0557C137.723 29.0557 139.195 29.6564 140.305 30.859C141.367 32.0257 141.897 33.5319 141.897 35.3778ZM139.025 35.4665C139.025 34.3282 138.779 33.3519 138.282 32.5376C137.701 31.5524 136.872 31.061 135.796 31.061C134.683 31.061 133.838 31.5536 133.257 32.5376C132.76 33.3532 132.515 34.3449 132.515 35.518C132.515 36.6563 132.76 37.6326 133.257 38.4456C133.856 39.4309 134.692 39.9222 135.772 39.9222C136.829 39.9222 137.659 39.4206 138.257 38.4198C138.768 37.5902 139.025 36.6036 139.025 35.4665Z" fill="white"/>
<path d="M150.897 31.7187C150.623 31.6685 150.33 31.6428 150.024 31.6428C149.05 31.6428 148.297 32.0068 147.767 32.7361C147.306 33.3793 147.075 34.1922 147.075 35.1736V41.6501H144.307L144.333 33.194C144.333 31.7714 144.298 30.4761 144.229 29.3082H146.641L146.742 31.6698H146.819C147.111 30.8581 147.572 30.2047 148.203 29.7146C148.82 29.2734 149.486 29.0535 150.205 29.0535C150.46 29.0535 150.692 29.0715 150.897 29.1036V31.7187Z" fill="white"/>
<path d="M163.279 34.8935C163.279 35.3848 163.246 35.799 163.178 36.1373H154.872C154.904 37.3567 155.305 38.2893 156.077 38.9324C156.777 39.5074 157.682 39.7955 158.793 39.7955C160.023 39.7955 161.145 39.6013 162.154 39.2116L162.588 41.1153C161.409 41.6246 160.017 41.878 158.41 41.878C156.478 41.878 154.961 41.3146 153.857 40.1891C152.756 39.0636 152.204 37.5522 152.204 35.6563C152.204 33.795 152.717 32.245 153.744 31.0089C154.82 29.6892 156.273 29.0293 158.101 29.0293C159.897 29.0293 161.257 29.6892 162.18 31.0089C162.911 32.0572 163.279 33.3538 163.279 34.8935ZM160.639 34.1822C160.657 33.3692 160.476 32.6669 160.101 32.0739C159.622 31.3112 158.886 30.9304 157.895 30.9304C156.99 30.9304 156.253 31.3022 155.691 32.0482C155.23 32.6412 154.956 33.3525 154.872 34.1809H160.639V34.1822Z" fill="white"/>
<path d="M68.3412 13.9992C68.3412 15.5132 67.8828 16.6528 66.9672 17.4181C66.1192 18.1243 64.9141 18.4781 63.3531 18.4781C62.5791 18.4781 61.9168 18.4446 61.3623 18.3777V10.1056C62.0856 9.98983 62.8648 9.93066 63.7064 9.93066C65.1933 9.93066 66.314 10.2509 67.0698 10.8915C67.9165 11.6157 68.3412 12.6512 68.3412 13.9992ZM66.9062 14.0365C66.9062 13.0551 66.6439 12.3026 66.1192 11.7778C65.5946 11.2543 64.8284 10.9919 63.8193 10.9919C63.3908 10.9919 63.0259 11.0201 62.7233 11.0793V17.368C62.8908 17.3937 63.1973 17.4053 63.6427 17.4053C64.6842 17.4053 65.4881 17.1184 66.0543 16.5448C66.6205 15.9711 66.9062 15.135 66.9062 14.0365Z" fill="white"/>
<path d="M75.9499 15.3209C75.9499 16.2535 75.6811 17.0175 75.1435 17.6169C74.5799 18.2331 73.8331 18.5405 72.9007 18.5405C72.0021 18.5405 71.2865 18.2459 70.7528 17.6542C70.2203 17.0638 69.9541 16.3191 69.9541 15.4213C69.9541 14.4823 70.2281 13.7118 70.7787 13.1136C71.3294 12.5155 72.0696 12.2158 73.002 12.2158C73.9007 12.2158 74.6227 12.5104 75.1694 13.1008C75.6889 13.6745 75.9499 14.4154 75.9499 15.3209ZM74.5383 15.3647C74.5383 14.8051 74.4162 14.3253 74.1734 13.9253C73.8877 13.4417 73.4812 13.1998 72.9527 13.1998C72.4059 13.1998 71.9904 13.4417 71.7047 13.9253C71.4605 14.3253 71.3398 14.8128 71.3398 15.3891C71.3398 15.9486 71.4618 16.4284 71.7047 16.8284C71.9995 17.3121 72.4098 17.5539 72.9397 17.5539C73.4591 17.5539 73.8669 17.3082 74.1604 16.8156C74.4123 16.4078 74.5383 15.9242 74.5383 15.3647Z" fill="white"/>
<path d="M86.1519 12.3389L84.2364 18.4024H82.9897L82.1963 15.7694C81.995 15.1121 81.8314 14.4587 81.7041 13.8104H81.6794C81.5612 14.4767 81.3976 15.1288 81.1872 15.7694L80.3444 18.4024H79.0834L77.2822 12.3389H78.6809L79.373 15.2214C79.5406 15.9032 79.6782 16.5527 79.7886 17.1676H79.8133C79.9146 16.6608 80.0821 16.0151 80.3184 15.2343L81.1872 12.3402H82.2963L83.1287 15.1726C83.33 15.8633 83.4936 16.5283 83.6196 17.1689H83.6572C83.7495 16.545 83.8884 15.88 84.0728 15.1726L84.8156 12.3402H86.1519V12.3389Z" fill="white"/>
<path d="M93.2078 18.4023H91.8468V14.9294C91.8468 13.8592 91.4364 13.3241 90.6131 13.3241C90.2092 13.3241 89.8833 13.4707 89.63 13.7653C89.3794 14.0598 89.2521 14.4071 89.2521 14.8046V18.401H87.8911V14.0714C87.8911 13.5389 87.8743 12.9613 87.8418 12.3362H89.0378L89.1015 13.2842H89.1391C89.2976 12.9896 89.5339 12.7465 89.8443 12.5523C90.2131 12.3259 90.6261 12.2114 91.078 12.2114C91.6494 12.2114 92.1247 12.3941 92.5026 12.7607C92.9727 13.2096 93.2078 13.8797 93.2078 14.7699V18.4023Z" fill="white"/>
<path d="M96.9603 18.4029H95.6006V9.55713H96.9603V18.4029Z" fill="white"/>
<path d="M104.973 15.3209C104.973 16.2535 104.705 17.0175 104.167 17.6169C103.603 18.2331 102.855 18.5405 101.924 18.5405C101.024 18.5405 100.309 18.2459 99.7762 17.6542C99.2438 17.0638 98.9775 16.3191 98.9775 15.4213C98.9775 14.4823 99.2516 13.7118 99.8022 13.1136C100.353 12.5155 101.093 12.2158 102.024 12.2158C102.924 12.2158 103.645 12.5104 104.193 13.1008C104.712 13.6745 104.973 14.4154 104.973 15.3209ZM103.56 15.3647C103.56 14.8051 103.438 14.3253 103.196 13.9253C102.911 13.4417 102.503 13.1998 101.976 13.1998C101.428 13.1998 101.013 13.4417 100.728 13.9253C100.484 14.3253 100.363 14.8128 100.363 15.3891C100.363 15.9486 100.485 16.4284 100.728 16.8284C101.023 17.3121 101.433 17.5539 101.963 17.5539C102.483 17.5539 102.889 17.3082 103.183 16.8156C103.436 16.4078 103.56 15.9242 103.56 15.3647Z" fill="white"/>
<path d="M111.56 18.4029H110.338L110.237 17.7044H110.199C109.781 18.2614 109.185 18.5405 108.411 18.5405C107.833 18.5405 107.365 18.3566 107.013 17.9913C106.694 17.6594 106.534 17.2465 106.534 16.7564C106.534 16.0155 106.846 15.4508 107.473 15.0598C108.099 14.6688 108.98 14.4771 110.113 14.4861V14.3729C110.113 13.5741 109.69 13.1754 108.842 13.1754C108.238 13.1754 107.706 13.3259 107.246 13.6243L106.969 12.7393C107.538 12.3908 108.241 12.2158 109.069 12.2158C110.669 12.2158 111.472 13.0519 111.472 14.7241V16.9571C111.472 17.5629 111.501 18.0453 111.56 18.4029ZM110.147 16.3191V15.3839C108.646 15.3582 107.895 15.766 107.895 16.6059C107.895 16.9223 107.981 17.159 108.156 17.3172C108.331 17.4755 108.555 17.5539 108.821 17.5539C109.12 17.5539 109.399 17.46 109.654 17.2735C109.909 17.0857 110.066 16.8477 110.125 16.5558C110.139 16.4902 110.147 16.4104 110.147 16.3191Z" fill="white"/>
<path d="M119.293 18.4029H118.085L118.022 17.4292H117.984C117.598 18.1701 116.941 18.5406 116.018 18.5406C115.28 18.5406 114.666 18.2537 114.179 17.68C113.692 17.1064 113.449 16.3616 113.449 15.447C113.449 14.4656 113.713 13.6707 114.243 13.0636C114.756 12.4976 115.384 12.2146 116.132 12.2146C116.954 12.2146 117.53 12.4886 117.857 13.0378H117.883V9.55713H119.245V16.7693C119.245 17.3598 119.261 17.9039 119.293 18.4029ZM117.883 15.8458V14.8348C117.883 14.6598 117.87 14.5183 117.845 14.4103C117.768 14.0862 117.604 13.8135 117.353 13.5935C117.1 13.3735 116.795 13.2629 116.443 13.2629C115.935 13.2629 115.537 13.4623 115.245 13.8623C114.956 14.2624 114.809 14.773 114.809 15.3969C114.809 15.9963 114.948 16.4825 115.227 16.8568C115.522 17.2556 115.919 17.4549 116.417 17.4549C116.863 17.4549 117.22 17.289 117.492 16.9559C117.754 16.6484 117.883 16.278 117.883 15.8458Z" fill="white"/>
<path d="M130.933 15.3209C130.933 16.2535 130.665 17.0175 130.127 17.6169C129.563 18.2331 128.818 18.5405 127.884 18.5405C126.987 18.5405 126.271 18.2459 125.736 17.6542C125.204 17.0638 124.938 16.3191 124.938 15.4213C124.938 14.4823 125.212 13.7118 125.762 13.1136C126.313 12.5155 127.053 12.2158 127.987 12.2158C128.884 12.2158 129.607 12.5104 130.153 13.1008C130.672 13.6745 130.933 14.4154 130.933 15.3209ZM129.523 15.3647C129.523 14.8051 129.401 14.3253 129.158 13.9253C128.871 13.4417 128.466 13.1998 127.936 13.1998C127.391 13.1998 126.975 13.4417 126.688 13.9253C126.444 14.3253 126.323 14.8128 126.323 15.3891C126.323 15.9486 126.445 16.4284 126.688 16.8284C126.983 17.3121 127.393 17.5539 127.923 17.5539C128.443 17.5539 128.852 17.3082 129.145 16.8156C129.396 16.4078 129.523 15.9242 129.523 15.3647Z" fill="white"/>
<path d="M138.25 18.4023H136.891V14.9294C136.891 13.8592 136.48 13.3241 135.656 13.3241C135.252 13.3241 134.926 13.4707 134.674 13.7653C134.422 14.0598 134.296 14.4071 134.296 14.8046V18.401H132.934V14.0714C132.934 13.5389 132.918 12.9613 132.886 12.3362H134.08L134.144 13.2842H134.182C134.342 12.9896 134.578 12.7465 134.887 12.5523C135.257 12.3259 135.669 12.2114 136.122 12.2114C136.692 12.2114 137.167 12.3941 137.545 12.7607C138.017 13.2096 138.25 13.8797 138.25 14.7699V18.4023Z" fill="white"/>
<path d="M147.41 13.3492H145.911V16.2948C145.911 17.0434 146.178 17.4177 146.705 17.4177C146.949 17.4177 147.152 17.3971 147.311 17.3547L147.346 18.3773C147.078 18.4776 146.724 18.5278 146.289 18.5278C145.752 18.5278 145.334 18.3657 145.031 18.0416C144.727 17.7174 144.576 17.172 144.576 16.4067V13.3492H143.682V12.3394H144.576V11.2281L145.91 10.8293V12.3382H147.409V13.3492H147.41Z" fill="white"/>
<path d="M154.615 18.4029H153.253V14.9557C153.253 13.8688 152.843 13.3247 152.021 13.3247C151.39 13.3247 150.958 13.6398 150.722 14.2701C150.682 14.4026 150.659 14.5647 150.659 14.755V18.4017H149.299V9.55713H150.659V13.2115H150.684C151.113 12.5465 151.727 12.2146 152.523 12.2146C153.087 12.2146 153.553 12.3973 153.923 12.7638C154.384 13.2205 154.615 13.8996 154.615 14.7975V18.4029Z" fill="white"/>
<path d="M162.047 15.0826C162.047 15.3245 162.029 15.5277 161.996 15.6936H157.915C157.933 16.293 158.128 16.7497 158.506 17.0661C158.851 17.3491 159.297 17.4906 159.842 17.4906C160.446 17.4906 160.996 17.3954 161.493 17.2037L161.706 18.1401C161.125 18.3897 160.442 18.5145 159.651 18.5145C158.703 18.5145 157.956 18.2379 157.416 17.6848C156.873 17.1317 156.604 16.3895 156.604 15.4582C156.604 14.5437 156.855 13.7822 157.36 13.1751C157.888 12.5268 158.601 12.2026 159.5 12.2026C160.381 12.2026 161.05 12.5268 161.502 13.1751C161.867 13.6896 162.047 14.3263 162.047 15.0826ZM160.748 14.7341C160.759 14.334 160.669 13.9893 160.485 13.6986C160.248 13.3243 159.889 13.1365 159.402 13.1365C158.958 13.1365 158.595 13.3191 158.319 13.6857C158.093 13.9777 157.959 14.3263 157.915 14.7341H160.748Z" fill="white"/>
</svg>
