<svg width="184" height="55" viewBox="0 0 184 55" fill="none" xmlns="http://www.w3.org/2000/svg">
<path d="M177.185 0.5H6.81481C3.0511 0.5 0 3.52208 0 7.25V47.75C0 51.4779 3.0511 54.5 6.81481 54.5H177.185C180.949 54.5 184 51.4779 184 47.75V7.25C184 3.52208 180.949 0.5 177.185 0.5Z" fill="black"/>
<path d="M177.185 1.58C178.703 1.58 180.159 2.17737 181.233 3.2407C182.307 4.30404 182.91 5.74622 182.91 7.25V47.75C182.91 49.2538 182.307 50.696 181.233 51.7593C180.159 52.8226 178.703 53.42 177.185 53.42H6.81481C5.2966 53.42 3.84056 52.8226 2.76702 51.7593C1.69348 50.696 1.09037 49.2538 1.09037 47.75V7.25C1.09037 5.74622 1.69348 4.30404 2.76702 3.2407C3.84056 2.17737 5.2966 1.58 6.81481 1.58H177.185ZM177.185 0.5H6.81481C5.00741 0.5 3.27404 1.21116 1.99601 2.47703C0.717987 3.7429 0 5.45979 0 7.25V47.75C0 49.5402 0.717987 51.2571 1.99601 52.523C3.27404 53.7888 5.00741 54.5 6.81481 54.5H177.185C178.993 54.5 180.726 53.7888 182.004 52.523C183.282 51.2571 184 49.5402 184 47.75V7.25C184 5.45979 183.282 3.7429 182.004 2.47703C180.726 1.21116 178.993 0.5 177.185 0.5Z" fill="#A6A6A6"/>
<path d="M92.873 29.8631C91.7285 29.8684 90.6112 30.2095 89.6622 30.8431C88.7132 31.4768 87.975 32.3747 87.5408 33.4236C87.1065 34.4724 86.9957 35.6252 87.2223 36.7364C87.4489 37.8476 88.0027 38.8674 88.8139 39.6671C89.6251 40.4668 90.6572 41.0106 91.7801 41.2298C92.903 41.449 94.0663 41.3338 95.1232 40.8987C96.1801 40.4637 97.0832 39.7283 97.7185 38.7854C98.3538 37.8424 98.6928 36.7342 98.6928 35.6006C98.7039 34.8418 98.5608 34.0886 98.2719 33.3857C97.983 32.6829 97.5543 32.0448 97.0113 31.5094C96.4683 30.9741 95.822 30.5525 95.1111 30.2696C94.4001 29.9868 93.639 29.8485 92.873 29.8631ZM92.873 39.0836C92.1691 39.1324 91.4667 38.9703 90.8571 38.6184C90.2475 38.2665 89.7588 37.7411 89.4547 37.1105C89.1505 36.4799 89.0449 35.7732 89.1516 35.0824C89.2583 34.3916 89.5724 33.7485 90.053 33.2368C90.5335 32.7251 91.1584 32.3684 91.8463 32.2131C92.5343 32.0579 93.2535 32.1112 93.9104 32.3661C94.5674 32.6211 95.1317 33.0659 95.5301 33.6427C95.9284 34.2195 96.1424 34.9017 96.1441 35.6006C96.166 36.0434 96.0982 36.4861 95.9447 36.9026C95.7912 37.319 95.555 37.7008 95.2502 38.0254C94.9453 38.3501 94.5779 38.6109 94.1696 38.7927C93.7613 38.9744 93.3205 39.0733 92.873 39.0836ZM80.1838 29.8631C79.0387 29.8658 77.9201 30.2045 76.9693 30.8366C76.0185 31.4687 75.2782 32.3657 74.8419 33.4143C74.4055 34.4629 74.2927 35.6161 74.5178 36.7282C74.7428 37.8403 75.2956 38.8613 76.1063 39.6624C76.9169 40.4634 77.9491 41.0085 79.0723 41.2288C80.1956 41.4491 81.3596 41.3347 82.4173 40.9001C83.4749 40.4654 84.3788 39.73 85.0147 38.7868C85.6506 37.8435 85.99 36.7348 85.99 35.6006C86.0011 34.8418 85.858 34.0886 85.5691 33.3857C85.2802 32.6829 84.8515 32.0448 84.3085 31.5094C83.7654 30.9741 83.1192 30.5525 82.4083 30.2696C81.6973 29.9868 80.9362 29.8485 80.1702 29.8631H80.1838ZM80.1838 39.0836C79.4796 39.1351 78.776 38.9754 78.1647 38.6253C77.5534 38.2753 77.0627 37.751 76.7564 37.1208C76.4501 36.4906 76.3425 35.7837 76.4475 35.0921C76.5525 34.4005 76.8653 33.7562 77.3452 33.2431C77.825 32.73 78.4497 32.3719 79.1379 32.2154C79.8262 32.0589 80.546 32.1112 81.2038 32.3656C81.8615 32.62 82.4267 33.0646 82.8258 33.6416C83.2249 34.2186 83.4394 34.9012 83.4413 35.6006C83.4632 36.0434 83.3954 36.4861 83.2419 36.9026C83.0884 37.319 82.8522 37.7008 82.5474 38.0254C82.2425 38.3501 81.8751 38.6109 81.4668 38.7927C81.0585 38.9744 80.6176 39.0733 80.1702 39.0836H80.1838ZM65.0685 31.6316V34.0616H70.9565C70.8642 35.2061 70.3839 36.2861 69.5936 37.1261C69.0045 37.7204 68.2963 38.186 67.5147 38.4929C66.733 38.7998 65.8951 38.9413 65.0549 38.9081C63.3198 38.9081 61.6557 38.2254 60.4288 37.0102C59.2019 35.7949 58.5127 34.1467 58.5127 32.4281C58.5127 30.7095 59.2019 29.0613 60.4288 27.846C61.6557 26.6308 63.3198 25.9481 65.0549 25.9481C66.7147 25.9213 68.3175 26.5476 69.5118 27.6896L71.2427 25.9751C70.4365 25.1665 69.4746 24.5264 68.4141 24.0927C67.3535 23.6591 66.2159 23.4407 65.0685 23.4506C63.8568 23.4039 62.6481 23.5999 61.5148 24.027C60.3814 24.4541 59.3468 25.1034 58.4728 25.936C57.5989 26.7686 56.9036 27.7673 56.4287 28.8725C55.9538 29.9776 55.709 31.1663 55.709 32.3673C55.709 33.5684 55.9538 34.7571 56.4287 35.8622C56.9036 36.9673 57.5989 37.9661 58.4728 38.7987C59.3468 39.6313 60.3814 40.2806 61.5148 40.7077C62.6481 41.1348 63.8568 41.3308 65.0685 41.2841C66.2352 41.3363 67.3995 41.1404 68.4833 40.7096C69.5672 40.2788 70.5452 39.6231 71.3518 38.7866C72.7797 37.2326 73.5421 35.1899 73.478 33.0896C73.4824 32.5779 73.4368 32.067 73.3417 31.5641L65.0685 31.6316ZM126.824 33.5216C126.469 32.4858 125.804 31.5814 124.918 30.928C124.032 30.2747 122.967 29.9034 121.863 29.8631C121.118 29.8617 120.38 30.0117 119.695 30.3039C119.01 30.5962 118.393 31.0244 117.882 31.5621C117.372 32.0999 116.977 32.7357 116.724 33.4303C116.471 34.1249 116.365 34.8636 116.411 35.6006C116.395 36.3551 116.532 37.1052 116.815 37.8061C117.097 38.5069 117.52 39.1442 118.057 39.6797C118.593 40.2153 119.234 40.6381 119.939 40.9231C120.645 41.208 121.401 41.3492 122.163 41.3381C123.116 41.3432 124.056 41.114 124.898 40.6711C125.74 40.2282 126.458 39.5853 126.988 38.8001L125.012 37.4501C124.717 37.9372 124.299 38.34 123.8 38.6193C123.3 38.8985 122.736 39.0445 122.163 39.0431C121.573 39.0654 120.989 38.9112 120.488 38.6006C119.988 38.29 119.593 37.8374 119.355 37.3016L127.111 34.1291L126.824 33.5216ZM118.919 35.4386C118.892 35.021 118.948 34.6022 119.086 34.2066C119.224 33.8111 119.44 33.4467 119.722 33.1349C120.004 32.8232 120.345 32.5702 120.727 32.3909C121.109 32.2115 121.523 32.1095 121.945 32.0906C122.385 32.0619 122.823 32.1618 123.206 32.3778C123.589 32.5938 123.899 32.9164 124.098 33.3056L118.919 35.4386ZM112.622 41.0006H115.171V24.1256H112.622V41.0006ZM108.452 31.1456H108.356C107.972 30.7202 107.502 30.38 106.975 30.1474C106.449 29.9147 105.879 29.7949 105.303 29.7956C103.814 29.8671 102.409 30.5036 101.381 31.573C100.352 32.6424 99.7782 34.0628 99.7782 35.5399C99.7782 37.0169 100.352 38.4373 101.381 39.5067C102.409 40.5761 103.814 41.2126 105.303 41.2841C105.881 41.2937 106.453 41.1778 106.981 40.9446C107.508 40.7114 107.978 40.3664 108.356 39.9341H108.438V40.7576C108.438 42.9581 107.252 44.1326 105.344 44.1326C104.709 44.1179 104.092 43.9162 103.572 43.5531C103.053 43.1901 102.654 42.6822 102.427 42.0941L100.206 43.0121C100.624 44.0197 101.336 44.8806 102.252 45.4843C103.167 46.088 104.244 46.4071 105.344 46.4006C108.329 46.4006 110.796 44.6591 110.796 40.4201V30.2006H108.452V31.1456ZM105.535 39.0836C104.656 39.0069 103.837 38.6067 103.241 37.962C102.645 37.3173 102.315 36.4748 102.315 35.6006C102.315 34.7264 102.645 33.8839 103.241 33.2392C103.837 32.5945 104.656 32.1943 105.535 32.1176C105.971 32.1398 106.398 32.2481 106.791 32.4362C107.184 32.6244 107.535 32.8885 107.823 33.2131C108.111 33.5377 108.331 33.9162 108.47 34.3262C108.608 34.7362 108.662 35.1695 108.629 35.6006C108.666 36.0335 108.614 36.4694 108.476 36.882C108.339 37.2945 108.118 37.675 107.827 38.0006C107.537 38.3262 107.183 38.59 106.786 38.7762C106.39 38.9623 105.96 39.0669 105.521 39.0836H105.535ZM138.764 24.1256H132.671V41.0006H135.22V34.6016H138.778C139.504 34.6533 140.233 34.5562 140.92 34.3164C141.607 34.0766 142.237 33.6992 142.77 33.2077C143.303 32.7163 143.728 32.1213 144.019 31.4599C144.309 30.7985 144.459 30.0849 144.459 29.3636C144.459 28.6423 144.309 27.9287 144.019 27.2673C143.728 26.6059 143.303 26.0109 142.77 25.5195C142.237 25.028 141.607 24.6506 140.92 24.4108C140.233 24.171 139.504 24.0739 138.778 24.1256H138.764ZM138.764 32.2256H135.207V26.4746H138.818C139.594 26.4746 140.337 26.7797 140.886 27.3227C141.434 27.8658 141.742 28.6023 141.742 29.3703C141.742 30.1384 141.434 30.8749 140.886 31.418C140.337 31.961 139.594 32.2661 138.818 32.2661L138.764 32.2256ZM154.479 29.7956C153.551 29.7407 152.627 29.9554 151.821 30.4135C151.014 30.8716 150.361 31.5531 149.94 32.3741L152.203 33.3056C152.426 32.8984 152.764 32.5642 153.175 32.3437C153.586 32.1231 154.054 32.0258 154.52 32.0636C154.843 32.0262 155.171 32.0529 155.484 32.1423C155.797 32.2317 156.089 32.382 156.343 32.5843C156.597 32.7866 156.807 33.037 156.962 33.3207C157.117 33.6045 157.214 33.916 157.246 34.2371V34.4126C156.427 33.9833 155.514 33.7607 154.588 33.7646C152.148 33.7646 149.681 35.1146 149.681 37.5581C149.705 38.0791 149.835 38.5901 150.062 39.0607C150.288 39.5314 150.608 39.9522 151.002 40.2983C151.396 40.6444 151.856 40.9088 152.355 41.0758C152.854 41.2428 153.381 41.309 153.906 41.2706C154.548 41.3163 155.191 41.1899 155.766 40.9049C156.342 40.6198 156.829 40.1866 157.178 39.6506H157.259V41.0006H159.713V34.5071C159.713 31.5506 157.45 29.8361 154.547 29.8361L154.479 29.7956ZM154.165 39.0431C153.334 39.0431 152.175 38.6246 152.175 37.6121C152.175 36.2621 153.62 35.8166 154.901 35.8166C155.711 35.7968 156.511 35.9926 157.218 36.3836C157.133 37.1145 156.784 37.7903 156.236 38.2864C155.687 38.7826 154.976 39.0657 154.234 39.0836L154.165 39.0431ZM168.654 30.2006L165.737 37.5176H165.655L162.629 30.2006H159.903L164.442 40.4336L161.853 46.1171H164.51L171.489 30.2006H168.654ZM145.742 41.0006H148.291V24.1256H145.742V41.0006Z" fill="white"/>
<path d="M64.5467 14.4082C64.5698 14.9034 64.4912 15.398 64.3154 15.8622C64.1397 16.3263 63.8706 16.7502 63.5244 17.1082C63.1379 17.5059 62.6711 17.8185 62.1544 18.0255C61.6378 18.2325 61.0829 18.3293 60.5259 18.3097C59.6809 18.3032 58.8565 18.0497 58.1563 17.5812C57.456 17.1126 56.9109 16.4498 56.5893 15.6757C56.2676 14.9017 56.1838 14.0508 56.3483 13.2298C56.5127 12.4087 56.9182 11.654 57.5138 11.0602C57.9052 10.6644 58.3745 10.3523 58.8926 10.1433C59.4107 9.93432 59.9666 9.83286 60.5259 9.84521C61.1021 9.8433 61.6726 9.95816 62.2024 10.1827C62.6956 10.3797 63.1346 10.6897 63.4835 11.0872L62.7612 11.8027C62.4891 11.4822 62.1456 11.2288 61.7576 11.0624C61.3697 10.8961 60.948 10.8214 60.5259 10.8442C60.1002 10.8421 59.6784 10.9252 59.2859 11.0885C58.8934 11.2518 58.5382 11.492 58.2416 11.7945C57.9451 12.0971 57.7133 12.4558 57.5601 12.8493C57.4069 13.2427 57.3355 13.6628 57.3502 14.0842C57.3413 14.7135 57.5207 15.3313 57.8659 15.8597C58.211 16.3881 58.7064 16.8034 59.2896 17.0532C59.8728 17.303 60.5176 17.3762 61.1427 17.2634C61.7678 17.1507 62.3452 16.8571 62.8021 16.4197C63.2215 15.9695 63.4633 15.3849 63.4835 14.7727H60.5259V13.8007H64.4921C64.5285 14.0012 64.5467 14.2045 64.5467 14.4082ZM70.789 11.0332H67.109V13.5982H70.4619V14.5702H67.109V17.1352H70.789V18.1342H66.0187V10.0342H70.789V11.0332ZM75.2595 18.1342H74.2101V11.0332H71.9203V10.0342H77.6038V11.0332H75.2595V18.1342ZM81.611 18.1342V10.0342H82.6604V18.1342H81.611ZM87.3218 18.1342H86.2723V11.0332H83.9825V10.0342H89.5979V11.0332H87.3218V18.1342ZM100.243 17.0812C99.4459 17.866 98.3678 18.3066 97.2441 18.3066C96.1204 18.3066 95.0424 17.866 94.2456 17.0812C93.4711 16.2692 93.0397 15.1945 93.0397 14.0775C93.0397 12.9604 93.4711 11.8857 94.2456 11.0737C94.6384 10.6819 95.1055 10.3709 95.6201 10.1586C96.1347 9.94641 96.6867 9.83715 97.2441 9.83715C97.8016 9.83715 98.3535 9.94641 98.8682 10.1586C99.3828 10.3709 99.8499 10.6819 100.243 11.0737C101.02 11.8841 101.454 12.9594 101.454 14.0775C101.454 15.1955 101.02 16.2708 100.243 17.0812ZM95.0225 16.4062C95.6126 16.9882 96.4114 17.315 97.2441 17.315C98.0769 17.315 98.8757 16.9882 99.4658 16.4062C100.048 15.7704 100.371 14.9427 100.371 14.0842C100.371 13.2258 100.048 12.398 99.4658 11.7622C98.8757 11.1802 98.0769 10.8534 97.2441 10.8534C96.4114 10.8534 95.6126 11.1802 95.0225 11.7622C94.4402 12.398 94.1176 13.2258 94.1176 14.0842C94.1176 14.9427 94.4402 15.7704 95.0225 16.4062ZM102.928 18.1342V10.0342H104.209L108.189 16.3387V10.0342H109.238V18.1342H108.148L103.991 11.5327V18.1342H102.928Z" fill="white"/>
<path fill-rule="evenodd" clip-rule="evenodd" d="M97.2441 9.97215C96.7047 9.97215 96.1705 10.0779 95.6725 10.2833C95.175 10.4884 94.7234 10.789 94.3435 11.1676C93.5937 11.9544 93.176 12.9954 93.176 14.0775C93.176 15.1593 93.5936 16.2002 94.3432 16.987C95.1143 17.7457 96.1572 18.1716 97.2441 18.1716C98.3312 18.1716 99.3741 17.7456 100.145 16.9868C100.898 16.2016 101.317 15.1602 101.317 14.0775C101.317 12.9946 100.898 11.953 100.145 11.1678C99.7651 10.7891 99.3133 10.4885 98.8158 10.2833C98.3177 10.0779 97.7836 9.97215 97.2441 9.97215ZM95.5677 10.034C96.099 9.81493 96.6687 9.70215 97.2441 9.70215C97.8196 9.70215 98.3893 9.81493 98.9205 10.034C99.4518 10.2531 99.934 10.5741 100.339 10.9786L100.341 10.9807C101.143 11.8162 101.59 12.9248 101.59 14.0775C101.59 15.2301 101.143 16.3387 100.341 17.1742L100.339 17.177C99.5165 17.9869 98.4039 18.4416 97.2441 18.4416C96.0844 18.4416 94.9718 17.9869 94.1495 17.1769L94.1465 17.174C93.3481 16.3369 92.9034 15.229 92.9034 14.0775C92.9034 12.9259 93.3482 11.8181 94.1465 10.981L94.1489 10.9786C94.5543 10.5741 95.0365 10.2531 95.5677 10.034ZM60.5229 9.98017C59.9822 9.96824 59.4449 10.0663 58.944 10.2683C58.4432 10.4704 57.9895 10.772 57.6111 11.1547L57.6105 11.1554C57.0338 11.7303 56.6412 12.4611 56.482 13.256C56.3227 14.051 56.4039 14.8749 56.7153 15.6244C57.0267 16.3738 57.5545 17.0156 58.2326 17.4693C58.9106 17.923 59.7087 18.1684 60.527 18.1747L60.5308 18.1747C61.0686 18.1937 61.6044 18.1002 62.1033 17.9003C62.6022 17.7004 63.0529 17.3987 63.4261 17.0147C63.7595 16.67 64.0186 16.2617 64.1878 15.8148C64.3571 15.3678 64.4328 14.8913 64.4105 14.4145L64.5467 14.4082L64.4104 14.4082C64.4104 14.25 64.399 14.0921 64.3762 13.9357H60.6622V14.6377H63.6244L63.6198 14.7771C63.5985 15.4217 63.3438 16.0373 62.9022 16.5113L62.8969 16.5169C62.4207 16.9729 61.8187 17.2787 61.1671 17.3963C60.5155 17.5138 59.8434 17.4375 59.2355 17.1771C58.6276 16.9167 58.1112 16.4838 57.7514 15.933C57.3923 15.3832 57.2052 14.7404 57.2139 14.0856C57.199 13.6471 57.2735 13.2101 57.4329 12.8007C57.5927 12.3903 57.8345 12.0161 58.1438 11.7005C58.4532 11.3849 58.8237 11.1344 59.2331 10.9641C59.6413 10.7943 60.0798 10.7076 60.5225 10.7092C60.9644 10.6859 61.4057 10.7644 61.8118 10.9385C62.1737 11.0937 62.4988 11.3211 62.7671 11.6059L63.2955 11.0825C62.9756 10.7457 62.5853 10.4813 62.1514 10.3079L62.1487 10.3068C61.6361 10.0895 61.084 9.97836 60.5264 9.9802L60.5229 9.98017ZM64.6829 14.4051C64.7065 14.9175 64.6249 15.4293 64.4431 15.9096C64.2609 16.3908 63.9818 16.8304 63.6229 17.2016C63.2231 17.613 62.74 17.9365 62.2056 18.1506C61.6717 18.3645 61.0984 18.4647 60.523 18.4447C59.6517 18.4376 58.802 18.1761 58.08 17.693C57.3575 17.2096 56.795 16.5257 56.4632 15.7271C56.1314 14.9285 56.0449 14.0506 56.2146 13.2035C56.3842 12.3565 56.8024 11.578 57.4167 10.9654C57.8212 10.5565 58.306 10.2342 58.8412 10.0183C59.3761 9.80254 59.9499 9.69769 60.5272 9.7102C61.1209 9.70848 61.7088 9.82684 62.2547 10.058C62.7673 10.2631 63.2236 10.5854 63.5864 10.9986L63.6698 11.0936L62.7525 12.0022L62.6568 11.8896C62.3984 11.5851 62.072 11.3443 61.7035 11.1863C61.3349 11.0283 60.9343 10.9573 60.5334 10.979L60.5252 10.9794C60.1179 10.9775 59.7143 11.0567 59.3387 11.213C58.9631 11.3693 58.6232 11.599 58.3394 11.8886C58.0557 12.1781 57.8338 12.5214 57.6873 12.8979C57.5407 13.2743 57.4724 13.6763 57.4864 14.0795L57.4867 14.0861C57.4781 14.6887 57.6498 15.2803 57.9803 15.7863C58.3108 16.2923 58.7853 16.6901 59.3437 16.9293C59.9022 17.1685 60.5197 17.2386 61.1183 17.1306C61.7156 17.0229 62.2675 16.7427 62.7045 16.3253C63.0682 15.9337 63.2904 15.4351 63.3386 14.9077H60.3896V13.6657H64.6061L64.6263 13.7768C64.6639 13.9842 64.6828 14.1944 64.6829 14.4051ZM65.8824 9.8992H70.9253V11.1682H67.2453V13.4632H70.5982V14.7052H67.2453V17.0002H70.9253V18.2692H65.8824V9.8992ZM66.155 10.1692V17.9992H70.6527V17.2702H66.9727V14.4352H70.3256V13.7332H66.9727V10.8982H70.6527V10.1692H66.155ZM71.784 9.8992H77.7401V11.1682H75.3958V18.2692H74.0738V11.1682H71.784V9.8992ZM72.0566 10.1692V10.8982H74.3464V17.9992H75.1232V10.8982H77.4675V10.1692H72.0566ZM81.4747 9.8992H82.7967V18.2692H81.4747V9.8992ZM81.7473 10.1692V17.9992H82.5241V10.1692H81.7473ZM83.8462 9.8992H89.7342V11.1682H87.4581V18.2692H86.136V11.1682H83.8462V9.8992ZM84.1188 10.1692V10.8982H86.4086V17.9992H87.1855V10.8982H89.4616V10.1692H84.1188ZM102.791 9.8992H104.284L108.052 15.8682V9.8992H109.375V18.2692H108.072L104.127 12.0042V18.2692H102.791V9.8992ZM103.064 10.1692V17.9992H103.855V11.0612L108.223 17.9992H109.102V10.1692H108.325V16.8092L104.133 10.1692H103.064ZM94.9263 11.6665C95.5419 11.0593 96.3754 10.7184 97.2441 10.7184C98.1129 10.7184 98.9463 11.0593 99.5619 11.6665L99.5668 11.6714C100.172 12.332 100.507 13.1922 100.507 14.0842C100.507 14.9762 100.172 15.8362 99.5667 16.4969L99.5621 16.502C98.9465 17.1092 98.1129 17.45 97.2441 17.45C96.3754 17.45 95.5419 17.1091 94.9263 16.5019L95.0225 16.4062L94.9216 16.4969C94.3165 15.8362 93.9813 14.9762 93.9813 14.0842C93.9813 13.1922 94.3165 12.3322 94.9216 11.6715L94.9263 11.6665ZM95.1211 16.313C95.6854 16.8683 96.4486 17.18 97.2441 17.18C98.0397 17.18 98.8028 16.8683 99.3671 16.313C99.9252 15.7023 100.234 14.908 100.234 14.0842C100.234 13.2604 99.9252 12.4661 99.3671 11.8554C98.8028 11.3001 98.0397 10.9884 97.2441 10.9884C96.4486 10.9884 95.6854 11.3001 95.1211 11.8554C94.563 12.4661 94.2539 13.2604 94.2539 14.0842C94.2539 14.908 94.563 15.7023 95.1211 16.313Z" fill="white"/>
<path d="M14.2295 10.6778C13.7853 11.2058 13.561 11.8817 13.6025 12.5678V42.4298C13.561 43.1158 13.7853 43.7918 14.2295 44.3198L14.3249 44.4143L31.212 27.7013V27.3098L14.3249 10.5833L14.2295 10.6778Z" fill="url(#paint0_linear_843_361)"/>
<path d="M36.8001 33.2772L31.2119 27.7017V27.3102L36.8001 21.7212L36.9227 21.7887L43.6149 25.5552C45.523 26.6217 45.523 28.3767 43.6149 29.4567L36.95 33.2097L36.8001 33.2772Z" fill="url(#paint1_linear_843_361)"/>
<path d="M36.9637 33.197L31.212 27.5L14.2295 44.321C14.6184 44.6596 15.1146 44.8531 15.6322 44.8679C16.1499 44.8827 16.6565 44.7179 17.0645 44.402L36.9773 33.197" fill="url(#paint2_linear_843_361)"/>
<path d="M36.9637 21.8024L17.0508 10.5974C16.6428 10.2815 16.1362 10.1167 15.6186 10.1315C15.1009 10.1463 14.6048 10.3398 14.2158 10.6784L31.212 27.4994L36.9637 21.8024Z" fill="url(#paint3_linear_843_361)"/>
<path opacity="0.2" d="M36.8002 33.0745L17.0508 44.212C16.6573 44.5034 16.1792 44.6608 15.6879 44.6608C15.1965 44.6608 14.7184 44.5034 14.3249 44.212L14.2295 44.3065L14.3249 44.401C14.7175 44.6945 15.196 44.8532 15.6879 44.8532C16.1797 44.8532 16.6582 44.6945 17.0508 44.401L36.9637 33.196L36.8002 33.0745Z" fill="black"/>
<path opacity="0.12" d="M14.2295 44.132C13.7853 43.604 13.561 42.9281 13.6025 42.242V42.4445C13.561 43.1306 13.7853 43.8065 14.2295 44.3345L14.3249 44.24L14.2295 44.132ZM43.615 29.255L36.8002 33.0755L36.9228 33.197L43.615 29.444C43.9947 29.2673 44.3207 28.9946 44.56 28.6532C44.7993 28.3119 44.9434 27.9141 44.9779 27.5C44.9013 27.8763 44.7386 28.2301 44.5023 28.5343C44.266 28.8386 43.9625 29.0851 43.615 29.255Z" fill="black"/>
<path opacity="0.25" d="M17.0508 10.7858L43.6149 25.7438C43.9624 25.9137 44.266 26.1602 44.5023 26.4645C44.7385 26.7687 44.9013 27.1226 44.9779 27.4988C44.9434 27.0847 44.7992 26.6869 44.5599 26.3456C44.3206 26.0043 43.9947 25.7315 43.6149 25.5548L17.0508 10.5968C15.1426 9.53032 13.5889 10.4213 13.5889 12.5813V12.7838C13.6298 10.6103 15.1563 9.71932 17.0508 10.7858Z" fill="white"/>
<defs>
<linearGradient id="paint0_linear_843_361" x1="29.7128" y1="12.2573" x2="7.06079" y2="35.1267" gradientUnits="userSpaceOnUse">
<stop stop-color="#00A0FF"/>
<stop offset="0.01" stop-color="#00A1FF"/>
<stop offset="0.26" stop-color="#00BEFF"/>
<stop offset="0.51" stop-color="#00D2FF"/>
<stop offset="0.76" stop-color="#00DFFF"/>
<stop offset="1" stop-color="#00E3FF"/>
</linearGradient>
<linearGradient id="paint1_linear_843_361" x1="46.1091" y1="27.4992" x2="13.139" y2="27.4992" gradientUnits="userSpaceOnUse">
<stop stop-color="#FFE000"/>
<stop offset="0.41" stop-color="#FFBD00"/>
<stop offset="0.78" stop-color="#FFA500"/>
<stop offset="1" stop-color="#FF9C00"/>
</linearGradient>
<linearGradient id="paint2_linear_843_361" x1="33.8425" y1="30.605" x2="3.11781" y2="61.6111" gradientUnits="userSpaceOnUse">
<stop stop-color="#FF3A44"/>
<stop offset="1" stop-color="#C31162"/>
</linearGradient>
<linearGradient id="paint3_linear_843_361" x1="9.94975" y1="0.742407" x2="23.6651" y2="14.5895" gradientUnits="userSpaceOnUse">
<stop stop-color="#32A071"/>
<stop offset="0.07" stop-color="#2DA771"/>
<stop offset="0.48" stop-color="#15CF74"/>
<stop offset="0.8" stop-color="#06E775"/>
<stop offset="1" stop-color="#00F076"/>
</linearGradient>
</defs>
</svg>
