<svg width="81" height="16" viewBox="0 0 81 16" fill="none" xmlns="http://www.w3.org/2000/svg">
<path d="M5.42488 15.26C3.95822 15.26 2.75822 14.88 1.82488 14.12C0.904883 13.36 0.338216 12.3467 0.124883 11.08L2.38488 10.52C2.53155 11.4 2.87822 12.0667 3.42488 12.52C3.98488 12.9733 4.67155 13.2 5.48488 13.2C5.93822 13.2 6.34488 13.12 6.70488 12.96C7.06488 12.7867 7.34488 12.5467 7.54488 12.24C7.75822 11.9333 7.86488 11.5867 7.86488 11.2C7.86488 10.7867 7.75155 10.4467 7.52488 10.18C7.29822 9.9 6.97155 9.65333 6.54488 9.44C6.11822 9.21333 5.59822 8.98 4.98488 8.74C4.14488 8.42 3.43155 8.07333 2.84488 7.7C2.25822 7.32667 1.81155 6.88667 1.50488 6.38C1.19822 5.86 1.04488 5.24667 1.04488 4.54C1.04488 3.80667 1.22488 3.16 1.58488 2.6C1.94488 2.02667 2.45155 1.58 3.10488 1.26C3.75822 0.939999 4.51155 0.779999 5.36488 0.779999C6.28488 0.779999 7.09822 0.986666 7.80488 1.4C8.51155 1.81333 9.07822 2.44 9.50488 3.28L7.66488 4.4C7.38488 3.89333 7.04488 3.50667 6.64488 3.24C6.24488 2.96 5.79155 2.82 5.28488 2.82C4.92488 2.82 4.59822 2.89333 4.30488 3.04C4.01155 3.17333 3.77822 3.36667 3.60488 3.62C3.44488 3.87333 3.36488 4.16667 3.36488 4.5C3.36488 4.84667 3.46488 5.15333 3.66488 5.42C3.86488 5.67333 4.17155 5.90667 4.58488 6.12C5.01155 6.33333 5.55155 6.56667 6.20488 6.82C7.04488 7.14 7.75822 7.48667 8.34488 7.86C8.93155 8.23333 9.37822 8.68 9.68488 9.2C10.0049 9.70667 10.1649 10.3267 10.1649 11.06C10.1649 11.8733 9.96488 12.5933 9.56488 13.22C9.16488 13.8467 8.60488 14.3467 7.88488 14.72C7.17822 15.08 6.35822 15.26 5.42488 15.26ZM16.5702 15.18C15.7435 15.18 15.0235 15.0467 14.4102 14.78C13.8102 14.5133 13.3169 14.14 12.9302 13.66C12.5435 13.18 12.2569 12.64 12.0702 12.04C11.8835 11.4267 11.7902 10.7933 11.7902 10.14C11.7902 9.48667 11.8769 8.85333 12.0502 8.24C12.2369 7.61333 12.5169 7.05333 12.8902 6.56C13.2635 6.06667 13.7435 5.68 14.3302 5.4C14.9169 5.10667 15.6102 4.96 16.4102 4.96C17.1702 4.96 17.8302 5.09333 18.3902 5.36C18.9635 5.61333 19.4369 5.97333 19.8102 6.44C20.1835 6.89333 20.4569 7.41333 20.6302 8C20.8169 8.58667 20.9102 9.21333 20.9102 9.88C20.9102 9.97333 20.9035 10.1067 20.8902 10.28C20.8902 10.4533 20.8769 10.6267 20.8502 10.8H14.0102C14.0635 11.5867 14.3302 12.1867 14.8102 12.6C15.2902 13.0133 15.9035 13.22 16.6502 13.22C17.1969 13.22 17.6969 13.1333 18.1502 12.96C18.6035 12.7867 19.0169 12.5133 19.3902 12.14L20.6102 13.62C20.1969 13.9933 19.7835 14.2933 19.3702 14.52C18.9569 14.7467 18.5235 14.9133 18.0702 15.02C17.6302 15.1267 17.1302 15.18 16.5702 15.18ZM18.7302 9.68C18.7569 9.57333 18.7702 9.46667 18.7702 9.36C18.7835 9.25333 18.7902 9.14667 18.7902 9.04C18.7902 8.74667 18.7369 8.46667 18.6302 8.2C18.5369 7.93333 18.3902 7.7 18.1902 7.5C17.9902 7.28667 17.7435 7.12 17.4502 7C17.1569 6.86667 16.8235 6.8 16.4502 6.8C15.9302 6.8 15.4902 6.91333 15.1302 7.14C14.7835 7.36667 14.5102 7.66 14.3102 8.02C14.1235 8.36667 14.0102 8.74667 13.9702 9.16H19.4502L18.7302 9.68ZM27.3905 15.18C26.5638 15.18 25.8438 15.0467 25.2305 14.78C24.6305 14.5133 24.1372 14.14 23.7505 13.66C23.3638 13.18 23.0772 12.64 22.8905 12.04C22.7038 11.4267 22.6105 10.7933 22.6105 10.14C22.6105 9.48667 22.6972 8.85333 22.8705 8.24C23.0572 7.61333 23.3372 7.05333 23.7105 6.56C24.0838 6.06667 24.5638 5.68 25.1505 5.4C25.7372 5.10667 26.4305 4.96 27.2305 4.96C27.9905 4.96 28.6505 5.09333 29.2105 5.36C29.7838 5.61333 30.2572 5.97333 30.6305 6.44C31.0038 6.89333 31.2772 7.41333 31.4505 8C31.6372 8.58667 31.7305 9.21333 31.7305 9.88C31.7305 9.97333 31.7238 10.1067 31.7105 10.28C31.7105 10.4533 31.6972 10.6267 31.6705 10.8H24.8305C24.8838 11.5867 25.1505 12.1867 25.6305 12.6C26.1105 13.0133 26.7238 13.22 27.4705 13.22C28.0172 13.22 28.5172 13.1333 28.9705 12.96C29.4238 12.7867 29.8372 12.5133 30.2105 12.14L31.4305 13.62C31.0172 13.9933 30.6038 14.2933 30.1905 14.52C29.7772 14.7467 29.3438 14.9133 28.8905 15.02C28.4505 15.1267 27.9505 15.18 27.3905 15.18ZM29.5505 9.68C29.5772 9.57333 29.5905 9.46667 29.5905 9.36C29.6038 9.25333 29.6105 9.14667 29.6105 9.04C29.6105 8.74667 29.5572 8.46667 29.4505 8.2C29.3572 7.93333 29.2105 7.7 29.0105 7.5C28.8105 7.28667 28.5638 7.12 28.2705 7C27.9772 6.86667 27.6438 6.8 27.2705 6.8C26.7505 6.8 26.3105 6.91333 25.9505 7.14C25.6038 7.36667 25.3305 7.66 25.1305 8.02C24.9438 8.36667 24.8305 8.74667 24.7905 9.16H30.2705L29.5505 9.68ZM37.7308 15.18C36.8508 15.18 36.0842 14.96 35.4308 14.52C34.7908 14.0667 34.2975 13.4533 33.9508 12.68C33.6042 11.9067 33.4308 11.0333 33.4308 10.06C33.4308 8.99333 33.6175 8.08 33.9908 7.32C34.3775 6.56 34.8975 5.98 35.5508 5.58C36.2042 5.16667 36.9308 4.96 37.7308 4.96C38.2908 4.96 38.8042 5.07333 39.2708 5.3C39.7508 5.52667 40.1508 5.86 40.4708 6.3C40.8042 6.72667 41.0375 7.25333 41.1708 7.88L40.6508 7.9V1.06H42.8708V15H40.6508V12.26L41.2508 12.12C41.0775 12.84 40.8108 13.4267 40.4508 13.88C40.1042 14.32 39.6975 14.6467 39.2308 14.86C38.7642 15.0733 38.2642 15.18 37.7308 15.18ZM38.2708 13.14C38.7908 13.14 39.2442 13.0133 39.6308 12.76C40.0175 12.5067 40.3175 12.1467 40.5308 11.68C40.7442 11.2133 40.8508 10.6733 40.8508 10.06C40.8508 9.44667 40.7442 8.91333 40.5308 8.46C40.3175 7.99333 40.0175 7.63333 39.6308 7.38C39.2442 7.11333 38.7908 6.98 38.2708 6.98C37.7508 6.98 37.2908 7.10667 36.8908 7.36C36.5042 7.61333 36.1975 7.97333 35.9708 8.44C35.7575 8.90667 35.6508 9.44667 35.6508 10.06C35.6508 10.6733 35.7575 11.2133 35.9708 11.68C36.1975 12.1467 36.5042 12.5067 36.8908 12.76C37.2908 13.0133 37.7508 13.14 38.2708 13.14ZM49.0529 15.18C48.5595 15.18 48.0929 15.0867 47.6529 14.9C47.2262 14.7 46.8862 14.3867 46.6329 13.96C46.3795 13.52 46.2529 12.9467 46.2529 12.24V2.74L48.4929 1.5V11.62C48.4929 12.18 48.5729 12.6133 48.7329 12.92C48.9062 13.2133 49.2129 13.36 49.6529 13.36C49.7862 13.36 49.9395 13.3467 50.1129 13.32C50.2995 13.28 50.4929 13.2333 50.6929 13.18V14.9C50.4262 14.9933 50.1529 15.06 49.8729 15.1C49.6062 15.1533 49.3329 15.18 49.0529 15.18ZM44.3729 6.86V5.14H50.6929V6.86H44.3729ZM52.6799 15V5.14H54.9199V7.8L54.4999 7.86C54.5665 7.28667 54.7599 6.78667 55.0799 6.36C55.3999 5.92 55.7865 5.58 56.2399 5.34C56.7065 5.08667 57.1665 4.96 57.6199 4.96C57.9399 4.96 58.2465 5 58.5399 5.08C58.8332 5.16 59.1399 5.29333 59.4599 5.48L58.3799 7.48C58.2332 7.38667 58.0399 7.31333 57.7999 7.26C57.5732 7.19333 57.3532 7.16 57.1399 7.16C56.8599 7.16 56.5799 7.21333 56.2999 7.32C56.0332 7.42667 55.7932 7.59333 55.5799 7.82C55.3665 8.03333 55.2065 8.31333 55.0999 8.66C55.0332 8.84667 54.9799 9.09333 54.9399 9.4C54.9132 9.69333 54.8999 10.1067 54.8999 10.64V15H52.6799ZM64.8514 15.18C64.0248 15.18 63.3048 15.0467 62.6914 14.78C62.0914 14.5133 61.5981 14.14 61.2114 13.66C60.8248 13.18 60.5381 12.64 60.3514 12.04C60.1648 11.4267 60.0714 10.7933 60.0714 10.14C60.0714 9.48667 60.1581 8.85333 60.3314 8.24C60.5181 7.61333 60.7981 7.05333 61.1714 6.56C61.5448 6.06667 62.0248 5.68 62.6114 5.4C63.1981 5.10667 63.8914 4.96 64.6914 4.96C65.4514 4.96 66.1114 5.09333 66.6714 5.36C67.2448 5.61333 67.7181 5.97333 68.0914 6.44C68.4648 6.89333 68.7381 7.41333 68.9114 8C69.0981 8.58667 69.1914 9.21333 69.1914 9.88C69.1914 9.97333 69.1848 10.1067 69.1714 10.28C69.1714 10.4533 69.1581 10.6267 69.1314 10.8H62.2914C62.3448 11.5867 62.6114 12.1867 63.0914 12.6C63.5714 13.0133 64.1848 13.22 64.9314 13.22C65.4781 13.22 65.9781 13.1333 66.4314 12.96C66.8848 12.7867 67.2981 12.5133 67.6714 12.14L68.8914 13.62C68.4781 13.9933 68.0648 14.2933 67.6514 14.52C67.2381 14.7467 66.8048 14.9133 66.3514 15.02C65.9114 15.1267 65.4114 15.18 64.8514 15.18ZM67.0114 9.68C67.0381 9.57333 67.0514 9.46667 67.0514 9.36C67.0648 9.25333 67.0714 9.14667 67.0714 9.04C67.0714 8.74667 67.0181 8.46667 66.9114 8.2C66.8181 7.93333 66.6714 7.7 66.4714 7.5C66.2714 7.28667 66.0248 7.12 65.7314 7C65.4381 6.86667 65.1048 6.8 64.7314 6.8C64.2114 6.8 63.7714 6.91333 63.4114 7.14C63.0648 7.36667 62.7914 7.66 62.5914 8.02C62.4048 8.36667 62.2914 8.74667 62.2514 9.16H67.7314L67.0114 9.68ZM75.6718 15.18C74.8451 15.18 74.1251 15.0467 73.5118 14.78C72.9118 14.5133 72.4184 14.14 72.0318 13.66C71.6451 13.18 71.3584 12.64 71.1718 12.04C70.9851 11.4267 70.8918 10.7933 70.8918 10.14C70.8918 9.48667 70.9784 8.85333 71.1518 8.24C71.3384 7.61333 71.6184 7.05333 71.9918 6.56C72.3651 6.06667 72.8451 5.68 73.4318 5.4C74.0184 5.10667 74.7118 4.96 75.5118 4.96C76.2718 4.96 76.9318 5.09333 77.4918 5.36C78.0651 5.61333 78.5384 5.97333 78.9118 6.44C79.2851 6.89333 79.5584 7.41333 79.7318 8C79.9184 8.58667 80.0118 9.21333 80.0118 9.88C80.0118 9.97333 80.0051 10.1067 79.9918 10.28C79.9918 10.4533 79.9784 10.6267 79.9518 10.8H73.1118C73.1651 11.5867 73.4318 12.1867 73.9118 12.6C74.3918 13.0133 75.0051 13.22 75.7518 13.22C76.2984 13.22 76.7984 13.1333 77.2518 12.96C77.7051 12.7867 78.1184 12.5133 78.4918 12.14L79.7118 13.62C79.2984 13.9933 78.8851 14.2933 78.4718 14.52C78.0584 14.7467 77.6251 14.9133 77.1718 15.02C76.7318 15.1267 76.2318 15.18 75.6718 15.18ZM77.8318 9.68C77.8584 9.57333 77.8718 9.46667 77.8718 9.36C77.8851 9.25333 77.8918 9.14667 77.8918 9.04C77.8918 8.74667 77.8384 8.46667 77.7318 8.2C77.6384 7.93333 77.4918 7.7 77.2918 7.5C77.0918 7.28667 76.8451 7.12 76.5518 7C76.2584 6.86667 75.9251 6.8 75.5518 6.8C75.0318 6.8 74.5918 6.91333 74.2318 7.14C73.8851 7.36667 73.6118 7.66 73.4118 8.02C73.2251 8.36667 73.1118 8.74667 73.0718 9.16H78.5518L77.8318 9.68Z" fill="#166B8E"/>
</svg>
