<svg width="57" height="40" viewBox="0 0 57 40" fill="none" xmlns="http://www.w3.org/2000/svg">
<path d="M10.8615 8.39807C12.7986 3.79237 17.12 0.560997 21.9965 0.0717391C25.3082 -0.260445 28.5184 0.565967 31.2237 2.44744C32.0569 3.02689 32.1829 3.0729 32.5729 2.94082C34.3095 2.35258 37.135 2.23726 38.9679 2.67979C42.1824 3.45579 45.1617 5.83774 46.656 8.82655C47.118 9.75039 47.2116 9.85207 47.6818 9.9397C48.6309 10.1168 50.3772 10.8718 51.4243 11.5579C53.9484 13.2117 55.7701 15.8425 56.444 18.8071C56.6305 19.627 56.6686 20.2939 56.6144 21.7895C56.5544 23.451 56.4859 23.8877 56.1164 24.9638C55.1086 27.8992 52.9312 30.3931 50.2162 31.7213C48.1011 32.7562 47.2519 32.9123 43.335 32.9861L40.033 33.0483V34.3871C40.033 35.889 40.2185 36.5009 40.8161 36.971C41.1763 37.2544 41.3699 37.2789 43.2477 37.2789H45.2878V38.6281V39.9773H43.5195C40.7074 39.9773 39.6311 39.6285 38.5088 38.3535C37.4986 37.2058 37.4767 37.033 37.4767 30.1779C37.4767 24.8735 37.5069 24.0099 37.7157 23.3638C38.0125 22.4444 38.9824 21.3361 39.8943 20.8739C40.4675 20.5835 40.582 20.4543 40.6667 20.0021C40.9151 18.6783 41.975 17.374 43.2822 16.7836C43.7618 16.5669 44.2255 16.4874 45.0037 16.4885C46.419 16.4905 47.3248 16.8859 48.2611 17.9103C49.1523 18.8854 49.4552 19.7562 49.3828 21.135C49.2919 22.8646 48.4127 24.1792 46.8595 24.9074C45.1617 25.7036 43.0534 25.2695 41.7498 23.8552C41.4273 23.5053 41.1127 23.219 41.0508 23.219C40.989 23.219 40.7505 23.4148 40.5212 23.6541L40.1041 24.0891L40.0586 27.2046L40.0132 30.32H43.1248C46.6407 30.32 47.7048 30.1434 49.3079 29.2939C50.477 28.6744 52.1347 27.0813 52.8136 25.9253C54.3742 23.2668 54.4758 20.1457 53.095 17.2671C52.637 16.3121 52.2885 15.8398 51.3549 14.9087C49.9409 13.4986 48.6893 12.8383 46.5944 12.3971L45.2006 12.1035L44.8732 11.2349C43.8282 8.46284 41.7148 6.3554 39.0598 5.43767C38.2545 5.15945 37.8339 5.11188 36.1985 5.11387C34.425 5.11614 34.1817 5.14994 32.9528 5.5652L31.6243 6.01399L30.3964 5.07623C28.0597 3.29147 26.3071 2.70223 23.3457 2.70535C21.4719 2.70734 21.2798 2.73418 20.0083 3.17217C16.561 4.35988 14.14 6.82975 12.91 10.414L12.3913 11.9253L11.1225 12.1056C9.57847 12.3251 8.53519 12.6176 7.58764 13.0967C5.36929 14.2182 3.53439 16.5115 2.88862 18.9697C2.60274 20.0583 2.56964 22.149 2.82116 23.2327C3.07864 24.3419 3.97054 26.1452 4.72878 27.0893C5.84434 28.4784 7.57572 29.5623 9.44143 30.0395C10.3975 30.2839 11.0187 30.32 14.2792 30.32H18.02V27.3304C18.02 24.0921 17.9664 23.8166 17.2225 23.2315C16.7343 22.8475 16.3681 22.8554 16.1557 23.2545C15.7613 23.9954 15.0974 24.6439 14.2782 25.0882C13.4776 25.5225 13.3032 25.5617 12.1972 25.5553C10.7599 25.547 9.95937 25.2418 9.08751 24.3699C8.20443 23.4868 7.89781 22.7681 7.82311 21.4051C7.76289 20.3076 7.78818 20.1704 8.20785 19.3178C9.51102 16.6709 12.7266 15.9457 15.0069 17.7846C15.6267 18.2844 16.4541 19.5405 16.4565 19.9853C16.4572 20.138 16.6057 20.2628 16.8483 20.3147C17.9403 20.5483 18.5552 20.8809 19.3104 21.6464C20.5979 22.9514 20.5763 22.8073 20.5763 30.1069C20.5763 37.1497 20.5719 37.1861 19.5674 38.3272C18.4424 39.6052 17.3921 39.973 14.86 39.9756L13.1913 39.9773V38.6281V37.2789H15.0184C16.6776 37.2789 16.8815 37.2507 17.2369 36.971C17.8345 36.5009 18.02 35.889 18.02 34.3867V33.0475L14.0079 32.9831C10.4694 32.9265 9.8618 32.8827 8.85971 32.6122C6.4627 31.9648 4.17732 30.5201 2.67418 28.7016C2.28008 28.2247 1.63858 27.1955 1.24873 26.4144C-2.1302 19.6443 1.63786 11.6439 9.06322 9.82253L10.4002 9.49461L10.8615 8.39807Z" fill="#166B8E"/>
<path d="M20.2179 8.60926C20.9547 7.93012 21.6162 7.60873 22.5646 7.46913C24.6387 7.16393 26.6723 8.33956 27.3987 10.2638C27.9662 11.7672 27.5597 13.8261 26.5004 14.814L26.1473 15.143L26.5929 16.0211L27.0382 16.8991L27.077 28.4382L27.1158 39.9773H25.8343H24.5529L24.5449 28.9353C24.539 20.763 24.4928 17.7675 24.3674 17.4095C24.1365 16.7505 23.6462 16.4252 22.5342 16.1924C21.3493 15.9446 20.8426 15.6816 20.08 14.9191C19.3646 14.2037 19.0718 13.6342 18.8711 12.5683C18.5953 11.1028 19.0898 9.64913 20.2179 8.60926Z" fill="#166B8E"/>
<path d="M32.0628 11.3735C32.589 10.305 33.3637 9.57457 34.4125 9.15845C35.4333 8.75355 36.9942 8.83166 37.9738 9.33654C41.2807 11.0411 41.2746 15.6397 37.9634 17.2699C37.1113 17.6893 36.8995 17.7342 35.8263 17.7225C34.4292 17.7072 33.8276 17.9968 33.5436 18.8213C33.4188 19.1841 33.372 22.0283 33.3661 29.6454L33.3581 39.9773H32.0757H30.7934L30.833 29.0773L30.8728 18.1773L31.1932 17.5777C31.3694 17.2479 31.7103 16.7539 31.9507 16.4801L32.388 15.9822L32.0047 15.1988C31.6959 14.5677 31.6201 14.2095 31.6145 13.3567C31.6087 12.4444 31.6707 12.1703 32.0628 11.3735Z" fill="#166B8E"/>
<circle cx="12.1791" cy="21.3871" r="2.37633" fill="white"/>
<circle cx="23.1693" cy="11.8817" r="2.37633" fill="white"/>
<circle cx="35.9418" cy="13.3668" r="2.37633" fill="white"/>
<circle cx="45.1507" cy="20.7928" r="2.37633" fill="white"/>
</svg>
